<?xml version="1.0" encoding="UTF-8" standalone="no"?>
<!-- Created with Inkscape (http://www.inkscape.org/) -->

<svg
   width="210mm"
   height="297mm"
   viewBox="0 0 210 297"
   version="1.1"
   id="svg5"
   inkscape:version="1.1 (c68e22c387, 2021-05-23)"
   sodipodi:docname="hello.svg"
   xmlns:inkscape="http://www.inkscape.org/namespaces/inkscape"
   xmlns:sodipodi="http://sodipodi.sourceforge.net/DTD/sodipodi-0.dtd"
   xmlns="http://www.w3.org/2000/svg"
   xmlns:svg="http://www.w3.org/2000/svg">
  <sodipodi:namedview
     id="namedview7"
     pagecolor="#ffffff"
     bordercolor="#666666"
     borderopacity="1.0"
     inkscape:pageshadow="2"
     inkscape:pageopacity="0.0"
     inkscape:pagecheckerboard="0"
     inkscape:document-units="mm"
     showgrid="false"
     inkscape:zoom="0.74118967"
     inkscape:cx="397.33419"
     inkscape:cy="561.25984"
     inkscape:window-width="958"
     inkscape:window-height="1008"
     inkscape:window-x="-7"
     inkscape:window-y="0"
     inkscape:window-maximized="0"
     inkscape:current-layer="layer1" />
  <defs
     id="defs2" />
  <g
     inkscape:label="Layer 1"
     inkscape:groupmode="layer"
     id="layer1">
    <path
       style="fill:#000000;stroke-width:0.264583"
       id="path338"
       d="m 17.199858,88.260673 c -0.110351,4.912415 -0.492689,9.814779 -0.78443,14.718887 -0.308866,5.0991 -0.454614,10.20698 -0.612019,15.31266 -0.0583,3.98871 -0.29488,7.9695 -0.52248,11.95091 -0.06072,2.03296 -0.245598,4.05529 -0.430942,6.0797 -0.107051,1.034 -0.151364,2.07147 -0.166534,3.11023 0.0095,0.98923 6.09e-4,1.97851 -0.0042,2.96774 0.05498,0.53241 0.149826,1.05936 0.223445,1.58932 0,0 3.465009,-1.82856 3.465009,-1.82856 v 0 c -0.07643,-0.51024 -0.174152,-1.01842 -0.209773,-1.53376 -0.0072,-0.98704 -0.02056,-1.97442 0.0051,-2.9613 0.01468,-1.01974 0.05001,-2.03927 0.116067,-3.05707 0.131729,-2.00634 0.289499,-4.01173 0.290765,-6.02403 0.118359,-3.94852 0.251695,-7.89625 0.305557,-11.84636 0.161111,-5.08904 0.347666,-10.1774 0.538344,-15.26536 0.28275,-4.997771 0.641079,-9.992663 1.225365,-14.965379 0,0 -3.439225,1.752372 -3.439225,1.752372 z" />
    <path
       style="fill:#000000;stroke-width:0.264583"
       id="path340"
       d="m 15.888404,116.09832 c 2.919982,-0.0915 5.842204,-0.0918 8.763373,-0.1 3.484168,-0.0521 6.964931,0.10069 10.44572,0.22736 1.459923,0.0574 2.919672,0.11907 4.379728,0.17307 0,0 3.097289,-2.24036 3.097289,-2.24036 v 0 c -1.507607,-0.009 -3.015192,-0.0253 -4.522359,-0.0646 -3.499474,-0.10199 -6.997734,-0.2723 -10.499974,-0.20269 -2.829398,-0.008 -5.66006,-0.006 -8.488156,-0.1 0,0 -3.175621,2.30722 -3.175621,2.30722 z" />
    <path
       style="fill:#000000;stroke-width:0.264583"
       id="path342"
       d="m 42.162883,87.303246 c -0.0013,0.266161 0.01405,0.532906 -0.0037,0.798476 -0.06183,0.925833 -0.286001,2.422043 -0.405286,3.264667 -0.405397,2.863731 -0.850548,5.720278 -1.305724,8.57645 -0.798147,4.774101 -1.862928,9.496971 -2.744047,14.255151 -0.598548,3.1887 -0.698124,6.4333 -0.773723,9.66726 -0.04762,2.39631 -0.06456,4.79306 -0.07931,7.18975 -0.04887,1.64113 -0.354359,3.25601 -0.517658,4.88644 -0.13957,1.53188 -0.17345,3.0708 -0.212645,4.6078 -0.01267,0.50859 -0.01886,1.0173 -0.0245,1.52601 0,0 3.47603,-1.77047 3.47603,-1.77047 v 0 c -0.0041,-0.50118 -0.0085,-1.00236 -0.0085,-1.50356 0.005,-1.52128 0.03833,-3.04369 0.192135,-4.5584 0.182459,-1.63507 0.475917,-3.26166 0.476139,-4.91186 -0.02984,-2.37349 -0.06428,-4.74731 -0.03545,-7.121 0.06432,-3.2065 0.199149,-6.41765 0.735676,-9.58619 0.796526,-4.72084 1.733492,-9.41692 2.502302,-14.14274 0.382247,-2.328495 0.600647,-3.720741 1.020773,-6.036358 0.365917,-2.016805 0.83279,-4.027188 1.114904,-6.058942 0.03962,-0.285316 0.05448,-0.573524 0.08173,-0.860285 0,0 -3.489137,1.777801 -3.489137,1.777801 z" />
    <path
       style="fill:#000000;stroke-width:0.264583"
       id="path344"
       d="m 55.951492,86.715551 c -0.875681,3.227586 -1.518922,6.510264 -2.291389,9.7639 -1.127091,4.733639 -2.194364,9.491169 -2.936529,14.302999 -0.440137,2.85363 -0.555548,4.20979 -0.864192,7.05678 -0.590484,5.6443 -0.511731,11.32808 -0.485638,16.99471 0.01765,1.7888 0.0067,3.57537 -0.06453,5.36258 0,0 3.289416,-1.66995 3.289416,-1.66995 v 0 c -0.01916,-1.75837 -0.08932,-3.5143 -0.133482,-5.27225 -0.103256,-5.61903 -0.218805,-11.25307 0.299024,-16.85717 0.31173,-3.0846 0.357227,-3.91387 0.829665,-7.01646 0.736039,-4.83371 1.811088,-9.611058 3.062139,-14.335537 0.893781,-3.344675 1.674759,-6.737993 2.880389,-9.987552 0,0 -3.584869,1.65795 -3.584869,1.65795 z" />
    <path
       style="fill:#000000;stroke-width:0.264583"
       id="path346"
       d="m 54.682442,89.322075 c 1.891824,-0.32917 3.828637,-0.331065 5.743501,-0.382873 2.958071,-0.068 5.916956,-0.06876 8.875596,-0.05931 0,0 2.934981,-2.13295 2.934981,-2.13295 v 0 c -2.945564,0.01662 -5.89111,0.0213 -8.836713,0.024 -1.855735,0.01162 -3.71584,0.0075 -5.56631,0.165344 0,0 -3.151055,2.385803 -3.151055,2.385803 z" />
    <path
       style="fill:#000000;stroke-width:0.264583"
       id="path348"
       d="m 52.035442,112.16615 c 5.432645,-0.22062 10.870568,-0.13073 16.305302,-0.064 4.738672,0.0856 2.457551,0.037 6.84343,0.14255 0,0 2.672297,-1.93597 2.672297,-1.93597 v 0 c -4.486892,-0.0157 -2.164154,2.6e-4 -6.968183,-0.0515 -5.231511,-0.0966 -10.462469,-0.22724 -15.692329,-0.38732 0,0 -3.160517,2.29625 -3.160517,2.29625 z" />
    <path
       style="fill:#000000;stroke-width:0.264583"
       id="path350"
       d="m 50.421653,140.37785 c 3.787497,-0.1453 7.578439,-0.0759 11.366963,-0.0212 0.978165,0.0203 1.956332,0.0406 2.934499,0.061 0,0 2.718681,-1.96772 2.718681,-1.96772 v 0 c -0.984888,-0.0153 -1.969775,-0.0305 -2.954663,-0.0458 -3.626141,-0.0902 -7.249316,-0.24029 -10.874753,-0.3445 0,0 -3.190727,2.3182 -3.190727,2.3182 z" />
    <path
       style="fill:#000000;stroke-width:0.264583"
       id="path352"
       d="m 87.137091,87.976608 c 0.427863,5.908474 -0.185971,11.821726 -0.773182,17.695422 -0.979942,8.5864 -2.529329,17.10667 -4.707654,25.46933 -0.275791,0.98288 -0.782264,2.74215 -1.03872,3.8053 -0.153011,0.63433 -0.44854,1.47429 -0.08877,2.13408 0.48941,0.89752 1.35314,0.98025 2.227794,1.29753 0.752898,0.12059 1.50146,0.27237 2.258692,0.36179 1.863582,0.22005 4.49589,0.34936 6.332588,0.42826 3.207329,0.1378 6.418498,0.21538 9.627301,0.3122 0,0 2.74301,-1.98531 2.74301,-1.98531 v 0 c -3.24084,-0.0212 -6.478757,-0.0559 -9.715956,-0.23121 -1.905402,-0.1032 -4.196159,-0.25988 -6.105604,-0.54145 -0.701408,-0.10343 -1.392044,-0.26999 -2.088068,-0.40499 -0.614397,-0.21736 -1.534657,-0.3603 -1.920377,-1.02536 -0.309224,-0.53316 -0.0828,-1.4188 0.0083,-1.92208 0.194167,-1.07264 0.576209,-2.68561 0.80492,-3.69162 1.803321,-8.35871 3.157863,-16.8071 4.248179,-25.28735 0.765443,-6.044561 1.448618,-12.104252 1.684991,-18.196582 0,0 -3.497453,1.78204 -3.497453,1.78204 z" />
    <path
       style="fill:#000000;stroke-width:0.264583"
       id="path354"
       d="m 122.67786,88.257979 c -2.39049,10.95928 -5.31263,21.795401 -8.18914,32.634761 -2.55438,9.02259 -4.95329,18.10275 -7.91709,27.00331 -0.0905,0.28636 -0.66553,1.47058 -0.27181,1.9485 0.18732,0.22739 0.50514,0.34155 0.79693,0.38214 0.76941,0.10703 3.55099,-0.27703 3.9969,-0.32596 1.03372,-0.11342 2.06809,-0.22082 3.10214,-0.33122 3.13781,-0.34232 6.28314,-0.60622 9.42852,-0.86643 0,0 2.72019,-2.01456 2.72019,-2.01456 v 0 c -3.15537,0.31644 -6.3104,0.63845 -9.4712,0.89721 -1.74337,0.13938 -3.48508,0.30162 -5.23022,0.41668 -0.45612,0.0301 -0.91292,0.0565 -1.37002,0.0602 -0.19053,0.002 -0.4184,0.0712 -0.56988,-0.0443 -0.38815,-0.29615 0.0931,-1.63641 0.0969,-1.65409 2.16665,-8.8553 4.36537,-17.70261 6.81414,-26.48539 2.14882,-7.97227 1.73672,-6.50785 3.93333,-14.403 1.51176,-5.43363 2.99715,-10.885501 4.70662,-16.261712 0.27934,-0.878531 0.59485,-1.745147 0.89228,-2.617722 0,0 -3.46855,1.661583 -3.46855,1.661583 z" />
    <path
       style="fill:#000000;stroke-width:0.264583"
       id="path360"
       d="m 165.00845,95.435527 c -3.00463,4.086305 -6.1178,8.109663 -8.79557,12.424563 -1.03172,1.66249 -1.97186,3.3801 -2.95779,5.07015 -2.04877,4.16683 -3.75332,7.26263 -5.19404,11.7127 -1.87597,5.79445 -2.9921,12.38893 -2.2049,18.48236 0.21624,1.67385 0.78569,3.28279 1.17853,4.92419 1.55314,3.10487 1.85445,4.72091 4.78435,6.77214 3.69093,2.58402 8.67906,2.72458 12.8723,1.52457 1.80426,-0.51634 3.46855,-1.43421 5.20283,-2.15131 2.53375,-1.62004 5.20276,-3.04582 7.60127,-4.86011 3.76156,-2.84534 6.94747,-6.7304 9.63165,-10.55131 2.73784,-3.89727 5.13721,-8.17873 6.9948,-12.56837 0.79948,-1.88923 1.36996,-3.86737 2.05494,-5.80106 0.36998,-1.70304 0.87001,-3.38295 1.10995,-5.10913 0.49779,-3.58136 0.30643,-7.4494 -1.38121,-10.71797 -1.05803,-2.04915 -1.69656,-2.38075 -3.3257,-3.86964 -0.6647,-0.38985 -1.28681,-0.863684 -1.9941,-1.169539 -3.38688,-1.464607 -7.25979,-0.825945 -10.68146,0.118642 -1.00021,0.276119 -1.97143,0.648187 -2.95715,0.972287 -0.85894,0.39877 -1.71788,0.79754 -2.57682,1.19631 0,0 -2.63902,2.10235 -2.63902,2.10235 v 0 c 0.86477,-0.4205 1.72954,-0.841 2.59431,-1.2615 0.98039,-0.3339 1.94484,-0.71889 2.94117,-1.0017 3.30115,-0.93701 7.08921,-1.55253 10.38468,-0.21834 0.69862,0.28284 1.3196,0.72865 1.9794,1.09298 1.64487,1.41496 2.24686,1.69397 3.35407,3.67088 1.74303,3.11217 2.0935,6.84505 1.71588,10.3382 -0.18189,1.68252 -0.62802,3.32587 -0.94204,4.9888 -0.63589,1.89992 -1.14994,3.84506 -1.90768,5.69976 -2.71031,6.63404 -6.73307,13.10279 -11.63473,18.34212 -3.23252,3.4552 -4.77625,4.42212 -8.13279,6.87976 -1.67671,0.70237 -3.28463,1.59925 -5.03013,2.10711 -4.0968,1.19199 -8.92389,1.06395 -12.56736,-1.39073 -2.92305,-1.96931 -3.25902,-3.49837 -4.89818,-6.51713 -0.4299,-1.59998 -1.04202,-3.16183 -1.28972,-4.79994 -0.92268,-6.10209 0.18187,-12.5068 2.09944,-18.30479 1.51272,-4.57386 3.17111,-7.46307 5.32971,-11.72946 1.03309,-1.70452 2.01394,-3.44183 3.09929,-5.11356 1.79417,-2.76349 3.69332,-5.24867 5.70942,-7.836532 0.53562,-0.68752 2.60335,-3.303751 3.42673,-4.201705 0.2221,-0.242218 0.48451,-0.444129 0.72676,-0.666191 0,0 -3.68109,1.420145 -3.68109,1.420145 z" />
  </g>
</svg>
